<svg id="visual" viewBox="0 0 900 600" width="900" height="600" xmlns="http://www.w3.org/2000/svg"
    xmlns:xlink="http://www.w3.org/1999/xlink" version="1.1">
    <path
        d="M -26 727.5 L -1 724.6 C 24 721.6 74 715.7 124 706.3 C 174 696.6 224 683.7 274 685.2 C 324 686.8 374 703.3 424 688.8 C 474 674.4 524 629.2 574 624.9 C 624 620.8 674 657.3 724 686.2 C 774 715.1 824 736 849 746.6 L 874 757 L 874 -165 L 849 -165 C 824 -165 774 -165 724 -165 C 674 -165 624 -165 574 -165 C 524 -165 474 -165 424 -165 C 374 -165 324 -165 274 -165 C 224 -165 174 -165 124 -165 C 74 -165 24 -165 -1 -165 L -26 -165 Z"
        fill="#f2efeb"></path>
    <path
        d="M 3 566 L 28 562.7 C 53 559.6 103 553.1 153 545.7 C 203 538.4 253 529.9 303 516.7 C 353 503.6 403 485.5 453 497.8 C 503 510 553 552.5 603 556.7 C 653 560.7 703 526.8 753 512 C 803 497.1 853 501.7 878 503.8 L 903 506.1 L 903 -102 L 878 -102 C 853 -102 803 -102 753 -102 C 703 -102 653 -102 603 -102 C 553 -102 503 -102 453 -102 C 403 -102 353 -102 303 -102 C 253 -102 203 -102 153 -102 C 103 -102 53 -102 28 -102 L 3 -102 Z"
        fill="#f0dfd8"></path>
    <path
        d="M -945 470.8 L -888.7 472.6 C -832.5 474.3 -720 477.9 -607.5 479.1 C -495 480.3 -382.5 479.4 -270 479.4 C -157.5 479.4 -45 480.3 67.5 468.2 C 180 456.1 292.5 431 405 417.9 C 517.5 404.7 630 403.8 742.5 405 C 855 406.2 967.5 409.8 1023.7 411.5 L 1080 413.3 L 1080 55 L 1023.7 55 C 967.5 55 855 55 742.5 55 C 630 55 517.5 55 405 55 C 292.5 55 180 55 67.5 55 C -45 55 -157.5 55 -270 55 C -382.5 55 -495 55 -607.5 55 C -720 55 -832.5 55 -888.7 55 L -945 55 Z"
        fill="#eececf"></path>
    <path
        d="M -13 322.6 L 12 331.8 C 37 340.8 87 359.1 137 357 C 187 354.9 237 332.6 287 326.5 C 337 320.3 387 330.2 437 345.5 C 487 360.9 537 381.3 587 374.2 C 637 367.2 687 332.6 737 324.4 C 787 316.1 837 334.4 862 343.4 L 887 352.6 L 887 37 L 862 37 C 837 37 787 37 737 37 C 687 37 637 37 587 37 C 537 37 487 37 437 37 C 387 37 337 37 287 37 C 237 37 187 37 137 37 C 87 37 37 37 12 37 L -13 37 Z"
        fill="#e4bfd1"></path>
    <path
        d="M -76 148.3 L -51 176 C -26 204.2 24 259.6 74 259.6 C 124 259.6 174 204.2 224 187.5 C 274 171.1 324 193.9 374 221.6 C 424 249.8 474 282.4 524 294.6 C 574 306.7 624 297.5 674 287 C 724 276.4 774 263.4 799 257.3 L 824 250.8 L 824 -129 L 799 -129 C 774 -129 724 -129 674 -129 C 624 -129 574 -129 524 -129 C 474 -129 424 -129 374 -129 C 324 -129 274 -129 224 -129 C 174 -129 124 -129 74 -129 C 24 -129 -26 -129 -51 -129 L -76 -129 Z"
        fill="#cab4d9"></path>
</svg>