<svg id="visual" viewBox="0 0 900 600" width="900" height="600" xmlns="http://www.w3.org/2000/svg"
    xmlns:xlink="http://www.w3.org/1999/xlink" version="1.1">
    <path
        d="M -32 914.5 L -7 911.6 C 18 908.6 68 902.7 118 893.3 C 168 883.6 218 870.7 268 872.2 C 318 873.8 368 890.3 418 875.8 C 468 861.4 518 816.2 568 811.9 C 618 807.8 668 844.3 718 873.2 C 768 902.1 818 923 843 933.6 L 868 944 L 868 22 L 843 22 C 818 22 768 22 718 22 C 668 22 618 22 568 22 C 518 22 468 22 418 22 C 368 22 318 22 268 22 C 218 22 168 22 118 22 C 68 22 18 22 -7 22 L -32 22 Z"
        fill="#f2efeb"></path>
    <path
        d="M -1331 567 L -1268.7 563.7 C -1206.3 560.6 -1081.7 554.1 -957 546.7 C -832.3 539.4 -707.7 530.9 -583 517.7 C -458.3 504.6 -333.7 486.5 -209 498.8 C -84.3 511 40.3 553.5 165 557.7 C 289.7 561.7 414.3 527.8 539 513 C 663.7 498.1 788.3 502.7 850.7 504.8 L 913 507.1 L 913 -101 L 850.7 -101 C 788.3 -101 663.7 -101 539 -101 C 414.3 -101 289.7 -101 165 -101 C 40.3 -101 -84.3 -101 -209 -101 C -333.7 -101 -458.3 -101 -583 -101 C -707.7 -101 -832.3 -101 -957 -101 C -1081.7 -101 -1206.3 -101 -1268.7 -101 L -1331 -101 Z"
        fill="#f0dfd8"></path>
    <path
        d="M -1247 480.8 L -1144.9 482.6 C -1043.1 484.3 -839.1 487.9 -635.2 489.1 C -431.2 490.3 -227.3 489.4 -23.3 489.4 C 180.6 489.4 384.6 490.3 588.5 478.2 C 792.4 466.1 996.4 441 1200.3 427.9 C 1404.3 414.7 1608.2 413.8 1812.2 415 C 2016.1 416.2 2220.1 419.8 2321.9 421.5 L 2424 423.3 L 2424 65 L 2321.9 65 C 2220.1 65 2016.1 65 1812.2 65 C 1608.2 65 1404.3 65 1200.3 65 C 996.4 65 792.4 65 588.5 65 C 384.6 65 180.6 65 -23.3 65 C -227.3 65 -431.2 65 -635.2 65 C -839.1 65 -1043.1 65 -1144.9 65 L -1247 65 Z"
        fill="#eececf"></path>
    <path
        d="M -1292 359.6 L -1214.8 368.8 C -1137.7 377.8 -983.3 396.1 -829 394 C -674.7 391.9 -520.3 369.6 -366 363.5 C -211.7 357.3 -57.3 367.2 97 382.5 C 251.3 397.9 405.7 418.3 560 411.2 C 714.3 404.2 868.7 369.6 1023 361.4 C 1177.3 353.1 1331.7 371.4 1408.8 380.4 L 1486 389.6 L 1486 74 L 1408.8 74 C 1331.7 74 1177.3 74 1023 74 C 868.7 74 714.3 74 560 74 C 405.7 74 251.3 74 97 74 C -57.3 74 -211.7 74 -366 74 C -520.3 74 -674.7 74 -829 74 C -983.3 74 -1137.7 74 -1214.8 74 L -1292 74 Z"
        fill="#e4bfd1"></path>
    <path
        d="M -1663 147.3 L -1587.5 175 C -1512.1 203.2 -1361.1 258.6 -1210.2 258.6 C -1059.2 258.6 -908.3 203.2 -757.3 186.5 C -606.4 170.1 -455.4 192.9 -304.5 220.6 C -153.6 248.8 -2.6 281.4 148.3 293.6 C 299.3 305.7 450.2 296.5 601.2 286 C 752.1 275.4 903.1 262.4 978.5 256.3 L 1054 249.8 L 1054 -130 L 978.5 -130 C 903.1 -130 752.1 -130 601.2 -130 C 450.2 -130 299.3 -130 148.3 -130 C -2.6 -130 -153.6 -130 -304.5 -130 C -455.4 -130 -606.4 -130 -757.3 -130 C -908.3 -130 -1059.2 -130 -1210.2 -130 C -1361.1 -130 -1512.1 -130 -1587.5 -130 L -1663 -130 Z"
        fill="#cab4d9"></path>
</svg>