<svg xmlns="http://www.w3.org/2000/svg" xmlns:xlink="http://www.w3.org/1999/xlink" width="1024" zoomAndPan="magnify"
    viewBox="0 0 768 767.999994" height="1024" preserveAspectRatio="xMidYMid meet" version="1.0">
    <path fill="#c291f2"
        d="M 42.515625 360.113281 C 47.308594 290.902344 72.589844 225.898438 115.984375 171.308594 C 143.984375 183.445312 173.84375 193.703125 205.011719 201.816406 C 190.679688 251.671875 182.523438 304.867188 180.710938 360.113281 Z M 360.113281 585.707031 L 360.113281 722.71875 C 320.824219 709.523438 284.28125 664.304688 258.109375 596.304688 C 289.964844 590.390625 324.1875 586.875 360.113281 585.707031 Z M 274.945312 708.542969 C 226.4375 692.199219 182.183594 665.101562 145.214844 629.023438 C 167.546875 620.175781 191.847656 612.371094 217.710938 605.8125 C 233.117188 646.964844 252.625 681.890625 274.945312 708.542969 Z M 221.921875 407.886719 L 360.113281 407.886719 L 360.113281 544.050781 C 320.609375 545.3125 281.964844 549.65625 244.960938 556.9375 C 231.675781 510.828125 223.78125 459.617188 221.921875 407.886719 Z M 360.113281 223.933594 L 360.113281 360.101562 L 221.921875 360.101562 C 223.796875 308.351562 231.675781 257.171875 244.960938 211.078125 C 282.132812 218.375 320.792969 222.703125 360.113281 223.933594 Z M 145.214844 138.976562 C 182.214844 102.910156 226.46875 75.816406 274.945312 59.488281 C 252.640625 86.078125 233.148438 121.023438 217.710938 162.1875 C 191.878906 155.628906 167.546875 147.824219 145.214844 138.976562 Z M 258.109375 171.695312 C 284.265625 103.617188 320.855469 58.429688 360.113281 45.328125 L 360.113281 182.324219 C 324.15625 181.125 289.933594 177.578125 258.109375 171.695312 Z M 204.996094 566.183594 C 173.890625 574.308594 144 584.554688 115.96875 596.691406 C 72.589844 542.160156 47.292969 477.144531 42.5 407.886719 L 180.695312 407.886719 C 182.507812 463.105469 190.664062 516.28125 204.996094 566.183594 Z M 725.484375 407.746094 C 720.660156 477.113281 695.410156 542.175781 652.015625 596.691406 C 623.953125 584.554688 594.0625 574.324219 562.988281 566.214844 C 577.289062 516.355469 585.445312 463.164062 587.289062 407.730469 L 725.484375 407.730469 Z M 407.886719 182.324219 L 407.886719 45.328125 C 447.175781 58.429688 483.71875 103.648438 509.890625 171.695312 C 478.066406 177.578125 443.84375 181.125 407.886719 182.324219 Z M 550.300781 162.1875 C 534.882812 121.035156 515.375 86.078125 493.039062 59.488281 C 541.515625 75.800781 585.800781 102.898438 622.769531 138.976562 C 600.421875 147.824219 576.121094 155.628906 550.300781 162.1875 Z M 546.046875 360.113281 L 407.886719 360.113281 L 407.886719 223.949219 C 447.328125 222.6875 485.976562 218.34375 523.007812 211.09375 C 536.292969 257.109375 544.21875 308.320312 546.046875 360.113281 Z M 587.273438 360.113281 C 585.460938 304.894531 577.304688 251.734375 562.976562 201.847656 C 594.109375 193.71875 623.96875 183.476562 652.03125 171.324219 C 695.410156 225.882812 720.675781 290.871094 725.46875 360.128906 L 587.273438 360.128906 Z M 407.886719 544.066406 L 407.886719 407.746094 L 546.046875 407.746094 C 544.203125 459.648438 536.292969 510.890625 523.023438 556.921875 C 485.992188 549.625 447.328125 545.296875 407.886719 544.066406 Z M 622.785156 629.023438 C 585.816406 665.089844 541.53125 692.183594 493.023438 708.542969 C 515.359375 681.890625 534.882812 646.980469 550.289062 605.8125 C 576.183594 612.402344 600.484375 620.175781 622.785156 629.023438 Z M 509.859375 596.304688 C 483.734375 664.320312 447.175781 709.507812 407.886719 722.71875 L 407.886719 585.707031 C 443.6875 586.875 477.894531 590.390625 509.859375 596.304688 Z M 383.984375 0 C 172.277344 0 0 172.277344 0 384.015625 C 0 595.722656 172.277344 768 383.984375 768 C 595.722656 768 768 595.722656 768 384.015625 C 768 172.277344 595.722656 0 383.984375 0 Z M 383.984375 0 "
        fill-opacity="1" fill-rule="evenodd" />
</svg>